<svg width="14" height="14" viewBox="0 0 14 14" fill="none" xmlns="http://www.w3.org/2000/svg">
<g clip-path="url(#clip0_6552_35432)">
<path d="M12.3531 3.51094C12.4469 3.60469 12.5 3.73125 12.5 3.86406V13.5C12.5 13.7766 12.2766 14 12 14H2C1.72344 14 1.5 13.7766 1.5 13.5V0.5C1.5 0.223437 1.72344 0 2 0H8.63594C8.76875 0 8.89688 0.053125 8.99063 0.146875L12.3531 3.51094ZM11.3469 4.09375L8.40625 1.15313V4.09375H11.3469ZM4 6.53125C3.96685 6.53125 3.93505 6.54442 3.91161 6.56786C3.88817 6.5913 3.875 6.6231 3.875 6.65625V7.40625C3.875 7.4394 3.88817 7.4712 3.91161 7.49464C3.93505 7.51808 3.96685 7.53125 4 7.53125H10C10.0332 7.53125 10.0649 7.51808 10.0884 7.49464C10.1118 7.4712 10.125 7.4394 10.125 7.40625V6.65625C10.125 6.6231 10.1118 6.5913 10.0884 6.56786C10.0649 6.54442 10.0332 6.53125 10 6.53125H4ZM4 8.65625C3.96685 8.65625 3.93505 8.66942 3.91161 8.69286C3.88817 8.7163 3.875 8.7481 3.875 8.78125V9.53125C3.875 9.5644 3.88817 9.5962 3.91161 9.61964C3.93505 9.64308 3.96685 9.65625 4 9.65625H6.875C6.90815 9.65625 6.93995 9.64308 6.96339 9.61964C6.98683 9.5962 7 9.5644 7 9.53125V8.78125C7 8.7481 6.98683 8.7163 6.96339 8.69286C6.93995 8.66942 6.90815 8.65625 6.875 8.65625H4Z" fill="#69E8D9"/>
</g>
<defs>
<clipPath id="clip0_6552_35432">
<rect width="14" height="14" fill="white"/>
</clipPath>
</defs>
</svg>
