<svg width="14" height="14" viewBox="0 0 14 14" fill="none" xmlns="http://www.w3.org/2000/svg">
<g clip-path="url(#clip0_6552_35428)">
<path d="M13.7898 6.89022L7.35391 0.458972C7.30757 0.41254 7.25252 0.375704 7.19193 0.35057C7.13134 0.325437 7.06638 0.3125 7.00078 0.3125C6.93518 0.3125 6.87023 0.325437 6.80963 0.35057C6.74904 0.375704 6.694 0.41254 6.64766 0.458972L0.211719 6.89022C0.0242188 7.07772 -0.0820312 7.33241 -0.0820312 7.59803C-0.0820312 8.1496 0.366406 8.59803 0.917969 8.59803H1.59609V13.1871C1.59609 13.4637 1.81953 13.6871 2.09609 13.6871H6.00078V10.1871H7.75078V13.6871H11.9055C12.182 13.6871 12.4055 13.4637 12.4055 13.1871V8.59803H13.0836C13.3492 8.59803 13.6039 8.49335 13.7914 8.30428C14.1805 7.91366 14.1805 7.28085 13.7898 6.89022Z" fill="#69E8D9"/>
</g>
<defs>
<clipPath id="clip0_6552_35428">
<rect width="14" height="14" fill="white"/>
</clipPath>
</defs>
</svg>
