<svg width="14" height="14" viewBox="0 0 14 14" fill="none" xmlns="http://www.w3.org/2000/svg">
<g clip-path="url(#clip0_6552_35424)">
<path d="M4.82812 5.42188C4.38281 5.42188 4.02031 5.78594 4.02031 6.23438C4.02031 6.68281 4.38281 7.04688 4.82812 7.04688C5.27344 7.04688 5.63594 6.68281 5.63594 6.23438C5.63594 5.78594 5.27344 5.42188 4.82812 5.42188ZM13.5 1.5H0.5C0.223437 1.5 0 1.72344 0 2V12C0 12.2766 0.223437 12.5 0.5 12.5H13.5C13.7766 12.5 14 12.2766 14 12V2C14 1.72344 13.7766 1.5 13.5 1.5ZM8.5 5.5625C8.5 5.49375 8.51562 5.4375 8.53594 5.4375H10.4641C10.4844 5.4375 10.5 5.49375 10.5 5.5625V6.3125C10.5 6.38125 10.4844 6.4375 10.4641 6.4375H8.53594C8.51562 6.4375 8.5 6.38125 8.5 6.3125V5.5625ZM7.15625 9.51562H6.47031C6.40469 9.51562 6.35156 9.46406 6.34688 9.39844C6.2875 8.60938 5.62813 7.98438 4.82812 7.98438C4.02812 7.98438 3.36875 8.60938 3.30937 9.39844C3.30469 9.46406 3.25156 9.51562 3.18594 9.51562H2.5C2.48305 9.51565 2.46626 9.51222 2.45068 9.50555C2.43509 9.49888 2.42102 9.48911 2.40933 9.47683C2.39763 9.46455 2.38856 9.45003 2.38266 9.43413C2.37676 9.41824 2.37415 9.40131 2.375 9.38437C2.41875 8.55156 2.875 7.82656 3.54063 7.41406C3.24709 7.09139 3.0849 6.67058 3.08594 6.23438C3.08594 5.26719 3.86562 4.48438 4.82656 4.48438C5.7875 4.48438 6.56719 5.26719 6.56719 6.23438C6.56719 6.68906 6.39531 7.10156 6.1125 7.41406C6.77969 7.82812 7.23438 8.55156 7.27812 9.38437C7.28437 9.45625 7.22813 9.51562 7.15625 9.51562ZM11.5141 8.6875H8.61094C8.55 8.6875 8.5 8.63125 8.5 8.5625V7.8125C8.5 7.74375 8.55 7.6875 8.61094 7.6875H11.5125C11.5734 7.6875 11.6234 7.74375 11.6234 7.8125V8.5625H11.625C11.625 8.63125 11.575 8.6875 11.5141 8.6875Z" fill="#69E8D9"/>
</g>
<defs>
<clipPath id="clip0_6552_35424">
<rect width="14" height="14" fill="white"/>
</clipPath>
</defs>
</svg>
